<svg width="22" height="41" viewBox="0 0 22 41" fill="none" xmlns="http://www.w3.org/2000/svg">
<path fill-rule="evenodd" clip-rule="evenodd" d="M0.733026 39.7115C1.54301 40.4843 2.85299 40.4843 3.66097 39.7115L20.7867 23.3354C21.17 22.9744 21.4753 22.54 21.6839 22.0584C21.8924 21.5769 22 21.0584 22 20.5344C22 20.0104 21.8924 19.4918 21.6839 19.0103C21.4753 18.5288 21.17 18.0943 20.7867 17.7334L3.53698 1.23638C3.14549 0.867694 2.62705 0.660469 2.08696 0.656788C1.54686 0.653108 1.0256 0.853248 0.629028 1.21656C0.432575 1.39598 0.275387 1.61345 0.167197 1.85549C0.0590078 2.09754 0.0021205 2.35902 5.81595e-05 2.62374C-0.00200419 2.88846 0.0508023 3.15077 0.155208 3.39445C0.259613 3.63813 0.413394 3.85797 0.607028 4.04037L16.3947 19.1344C16.5866 19.3149 16.7393 19.5322 16.8437 19.773C16.9481 20.0139 17.0019 20.2732 17.0019 20.5354C17.0019 20.7975 16.9481 21.0569 16.8437 21.2977C16.7393 21.5386 16.5866 21.7559 16.3947 21.9364L0.733026 36.9115C0.54125 37.0918 0.388529 37.3089 0.284166 37.5496C0.179803 37.7903 0.125982 38.0495 0.125982 38.3115C0.125982 38.5734 0.179803 38.8327 0.284166 39.0734C0.388529 39.314 0.54125 39.5312 0.733026 39.7115Z" fill="#BBC7C7"/>
</svg>
