<svg width="26" height="26" viewBox="0 0 26 26" fill="none" xmlns="http://www.w3.org/2000/svg">
<path d="M22.1 2.6H20.8V1.3C20.8 0.52 20.28 0 19.5 0C18.72 0 18.2 0.52 18.2 1.3V2.6H7.8V1.3C7.8 0.52 7.28 0 6.5 0C5.72 0 5.2 0.52 5.2 1.3V2.6H3.9C1.69 2.6 0 4.29 0 6.5V7.8H26V6.5C26 4.29 24.31 2.6 22.1 2.6ZM0 22.1C0 24.31 1.69 26 3.9 26H22.1C24.31 26 26 24.31 26 22.1V10.4H0V22.1ZM19.5 13C20.28 13 20.8 13.52 20.8 14.3C20.8 15.08 20.28 15.6 19.5 15.6C18.72 15.6 18.2 15.08 18.2 14.3C18.2 13.52 18.72 13 19.5 13ZM19.5 18.2C20.28 18.2 20.8 18.72 20.8 19.5C20.8 20.28 20.28 20.8 19.5 20.8C18.72 20.8 18.2 20.28 18.2 19.5C18.2 18.72 18.72 18.2 19.5 18.2ZM13 13C13.78 13 14.3 13.52 14.3 14.3C14.3 15.08 13.78 15.6 13 15.6C12.22 15.6 11.7 15.08 11.7 14.3C11.7 13.52 12.22 13 13 13ZM13 18.2C13.78 18.2 14.3 18.72 14.3 19.5C14.3 20.28 13.78 20.8 13 20.8C12.22 20.8 11.7 20.28 11.7 19.5C11.7 18.72 12.22 18.2 13 18.2ZM6.5 13C7.28 13 7.8 13.52 7.8 14.3C7.8 15.08 7.28 15.6 6.5 15.6C5.72 15.6 5.2 15.08 5.2 14.3C5.2 13.52 5.72 13 6.5 13ZM6.5 18.2C7.28 18.2 7.8 18.72 7.8 19.5C7.8 20.28 7.28 20.8 6.5 20.8C5.72 20.8 5.2 20.28 5.2 19.5C5.2 18.72 5.72 18.2 6.5 18.2Z" fill="#BBC7C7"/>
</svg>
