<svg width="25" height="31" viewBox="0 0 25 31" fill="none" xmlns="http://www.w3.org/2000/svg">
<path d="M9.01638 20.8893C11.2359 20.7104 13.4656 20.7104 15.6851 20.8893C16.8937 20.9598 18.0966 21.111 19.2861 21.3419C21.8603 21.8631 23.5408 22.7135 24.261 24.0851C24.8019 25.1556 24.8019 26.4299 24.261 27.5004C23.5408 28.872 21.9269 29.7772 19.2595 30.2435C18.0708 30.4832 16.8677 30.639 15.6584 30.7099C14.538 30.8333 13.4177 30.8333 12.284 30.8333H10.2434C9.81662 30.7785 9.40317 30.751 9.00305 30.751C7.79371 30.6888 6.59026 30.5376 5.40196 30.2984C2.82785 29.8046 1.14734 28.9268 0.427126 27.5552C0.149096 27.0239 0.00251921 26.4304 0.000160669 25.827C-0.00546414 25.22 0.13668 24.6211 0.413789 24.0851C1.12067 22.7135 2.80118 21.822 5.40196 21.3419C6.5955 21.1077 7.80305 20.9564 9.01638 20.8893ZM12.3374 0C16.8086 0 20.4332 3.72747 20.4332 8.32555C20.4332 12.9236 16.8086 16.6511 12.3374 16.6511C7.86621 16.6511 4.24161 12.9236 4.24161 8.32555C4.24161 3.72747 7.86621 0 12.3374 0Z" fill="#BBC7C7"/>
</svg>
