<svg width="24" height="30" viewBox="0 0 24 30" fill="none" xmlns="http://www.w3.org/2000/svg">
<path fill-rule="evenodd" clip-rule="evenodd" d="M12.6 0C12.4409 0 12.2883 0.0632142 12.1757 0.175736C12.0632 0.288258 12 0.44087 12 0.6V21C12 22.656 10.656 24 9 24C7.344 24 6 22.656 6 21C6 19.344 7.344 18 9 18C9.15913 18 9.31174 17.9368 9.42426 17.8243C9.53679 17.7117 9.6 17.5591 9.6 17.4V12.6C9.6 12.4409 9.53679 12.2883 9.42426 12.1757C9.31174 12.0632 9.15913 12 9 12C4.032 12 0 16.0326 0 21C0 25.968 4.032 30 9 30C13.9674 30 18 25.968 18 21V11.0964C19.3196 11.6936 20.7516 12.0017 22.2 12H23.4C23.5591 12 23.7117 11.9368 23.8243 11.8243C23.9368 11.7117 24 11.5591 24 11.4V6.6C24 6.44087 23.9368 6.28826 23.8243 6.17574C23.7117 6.06321 23.5591 6 23.4 6H22.2C19.8822 6 18 4.1178 18 1.8V0.6C18 0.44087 17.9368 0.288258 17.8243 0.175736C17.7117 0.0632142 17.5591 0 17.4 0H12.6ZM13.2 1.2H16.8V1.8C16.8 4.7802 19.2198 7.2 22.2 7.2H22.8V10.8H22.2C20.5614 10.8 19.0248 10.362 17.7006 9.5946C17.6094 9.54179 17.5058 9.51395 17.4004 9.51387C17.295 9.51379 17.1915 9.54149 17.1002 9.59416C17.0089 9.64684 16.933 9.72264 16.8803 9.81393C16.8277 9.90523 16.7999 10.0088 16.8 10.1142V21C16.8 25.305 13.305 28.8 9 28.8C4.695 28.8 1.2 25.305 1.2 21C1.2 16.8972 4.3752 13.53 8.4 13.2228V16.8426C6.366 17.1342 4.8 18.8856 4.8 21.0006C4.8 23.3178 6.6822 25.2006 9 25.2006C11.3178 25.2006 13.2 23.3178 13.2 21.0006V1.2Z" fill="black"/>
</svg>
