<svg width="27" height="27" viewBox="0 0 27 27" fill="none" xmlns="http://www.w3.org/2000/svg">
<g clip-path="url(#clip0_42_58)">
<path fill-rule="evenodd" clip-rule="evenodd" d="M21.465 12.015C17.145 9.45 9.9225 9.18 5.805 10.4625C5.13 10.665 4.455 10.26 4.2525 9.6525C4.05 8.9775 4.455 8.3025 5.0625 8.1C9.855 6.6825 17.7525 6.9525 22.7475 9.9225C23.355 10.26 23.5575 11.07 23.22 11.6775C22.8825 12.15 22.0725 12.3525 21.465 12.015ZM21.33 15.795C20.9925 16.2675 20.385 16.47 19.9125 16.1325C16.2675 13.905 10.7325 13.23 6.48 14.58C5.94 14.715 5.3325 14.445 5.1975 13.905C5.0625 13.365 5.3325 12.7575 5.8725 12.6225C10.8 11.1375 16.875 11.88 21.06 14.445C21.465 14.6475 21.6675 15.3225 21.33 15.795ZM19.71 19.5075C19.44 19.9125 18.9675 20.0475 18.5625 19.7775C15.39 17.82 11.4075 17.415 6.6825 18.495C6.21 18.63 5.805 18.2925 5.67 17.8875C5.535 17.415 5.8725 17.01 6.2775 16.875C11.4075 15.7275 15.8625 16.2 19.3725 18.36C19.845 18.5625 19.9125 19.1025 19.71 19.5075ZM13.5 0C6.075 0 0 6.075 0 13.5C0 20.925 6.075 27 13.5 27C20.925 27 27 20.925 27 13.5C27 6.075 20.9925 0 13.5 0Z" fill="#BBC7C7"/>
</g>
<defs>
<clipPath id="clip0_42_58">
<rect width="27" height="27" fill="white"/>
</clipPath>
</defs>
</svg>
