<svg width="30" height="30" viewBox="0 0 30 30" fill="none" xmlns="http://www.w3.org/2000/svg">
<path d="M21.6933 1H8.30667C4.27131 1 1 4.27131 1 8.30667V21.6933C1 25.7287 4.27131 29 8.30667 29H21.6933C25.7287 29 29 25.7287 29 21.6933V8.30667C29 4.27131 25.7287 1 21.6933 1Z" stroke="#303C42" stroke-linecap="round" stroke-linejoin="round"/>
<path d="M15 22.3332C19.0501 22.3332 22.3334 19.0499 22.3334 14.9998C22.3334 10.9497 19.0501 7.6665 15 7.6665C10.9499 7.6665 7.66669 10.9497 7.66669 14.9998C7.66669 19.0499 10.9499 22.3332 15 22.3332Z" stroke="#303C42" stroke-linecap="round" stroke-linejoin="round"/>
<path d="M23 6.33333C23.3682 6.33333 23.6666 6.03486 23.6666 5.66667C23.6666 5.29848 23.3682 5 23 5C22.6318 5 22.3333 5.29848 22.3333 5.66667C22.3333 6.03486 22.6318 6.33333 23 6.33333Z" stroke="#303C42" stroke-linecap="round" stroke-linejoin="round"/>
</svg>
