<svg width="26" height="26" viewBox="0 0 26 26" fill="none" xmlns="http://www.w3.org/2000/svg">
<path d="M24.7 15.6C24.3552 15.6 24.0246 15.737 23.7808 15.9808C23.537 16.2246 23.4 16.5552 23.4 16.9V22.1C23.4 22.4448 23.263 22.7754 23.0192 23.0192C22.7754 23.263 22.4448 23.4 22.1 23.4H3.9C3.55522 23.4 3.22456 23.263 2.98076 23.0192C2.73696 22.7754 2.6 22.4448 2.6 22.1V16.9C2.6 16.5552 2.46304 16.2246 2.21924 15.9808C1.97544 15.737 1.64478 15.6 1.3 15.6C0.955218 15.6 0.624558 15.737 0.380761 15.9808C0.136964 16.2246 0 16.5552 0 16.9V22.1C0 23.1343 0.410892 24.1263 1.14228 24.8577C1.87368 25.5891 2.86566 26 3.9 26H22.1C23.1343 26 24.1263 25.5891 24.8577 24.8577C25.5891 24.1263 26 23.1343 26 22.1V16.9C26 16.5552 25.863 16.2246 25.6192 15.9808C25.3754 15.737 25.0448 15.6 24.7 15.6ZM12.077 17.823C12.2006 17.9414 12.3464 18.0341 12.506 18.096C12.6616 18.1648 12.8299 18.2003 13 18.2003C13.1701 18.2003 13.3384 18.1648 13.494 18.096C13.6536 18.0341 13.7994 17.9414 13.923 17.823L19.123 12.623C19.3678 12.3782 19.5053 12.0462 19.5053 11.7C19.5053 11.3538 19.3678 11.0218 19.123 10.777C18.8782 10.5322 18.5462 10.3947 18.2 10.3947C17.8538 10.3947 17.5218 10.5322 17.277 10.777L14.3 13.767V1.3C14.3 0.955218 14.163 0.624558 13.9192 0.380761C13.6754 0.136964 13.3448 0 13 0C12.6552 0 12.3246 0.136964 12.0808 0.380761C11.837 0.624558 11.7 0.955218 11.7 1.3V13.767L8.723 10.777C8.60179 10.6558 8.45789 10.5596 8.29952 10.494C8.14116 10.4284 7.97142 10.3947 7.8 10.3947C7.62858 10.3947 7.45884 10.4284 7.30048 10.494C7.14211 10.5596 6.99821 10.6558 6.877 10.777C6.75579 10.8982 6.65964 11.0421 6.59404 11.2005C6.52844 11.3588 6.49468 11.5286 6.49468 11.7C6.49468 11.8714 6.52844 12.0412 6.59404 12.1995C6.65964 12.3579 6.75579 12.5018 6.877 12.623L12.077 17.823Z" fill="#BBC7C7"/>
</svg>
