<svg width="28" height="26" viewBox="0 0 28 26" fill="none" xmlns="http://www.w3.org/2000/svg">
<path d="M27.2604 0.686373C26.6747 0.200615 25.8696 0.0756145 25.1641 0.360852L1.27475 10.0054C0.223891 10.4379 -0.27733 11.6405 0.155206 12.6913C0.37892 13.2347 0.824233 13.6565 1.37892 13.8504L6.53257 15.6421L9.32553 24.8765C9.33115 24.8953 9.3484 24.9067 9.35565 24.9248C9.38454 24.9985 9.42677 25.0663 9.48008 25.1247C9.49993 25.1482 9.52158 25.1703 9.54469 25.1906C9.61427 25.2484 9.69508 25.2911 9.782 25.316C9.79526 25.3199 9.80413 25.3317 9.81764 25.3348L9.82545 25.3345L9.82936 25.3361C9.87387 25.346 9.91928 25.3508 9.96478 25.3504C10.0243 25.3483 10.0833 25.3381 10.1399 25.3199C10.1509 25.3169 10.162 25.3177 10.1727 25.3141C10.2695 25.28 10.3569 25.224 10.4281 25.1502C10.4364 25.1419 10.449 25.1405 10.457 25.1317L14.4752 20.6981L20.3372 25.2372C20.6934 25.5156 21.1325 25.6669 21.5846 25.6668C22.5624 25.6667 23.4065 24.9817 23.608 24.0249L27.9583 2.66814C28.1091 1.92937 27.8408 1.16766 27.2604 0.686373ZM10.7839 17.3934L9.84092 21.9758L7.87444 15.472L17.6276 10.3933L10.9649 17.0562C10.8727 17.1484 10.8098 17.2656 10.7839 17.3934ZM22.3021 23.7567C22.251 24.0021 22.0759 24.2034 21.8399 24.2879C21.6092 24.3766 21.3488 24.3371 21.155 24.1838L14.8034 19.2658C14.5284 19.0529 14.1359 19.0875 13.9024 19.3452L11.1082 22.4282L12.0495 17.8582L21.6341 8.27231C21.8946 8.0123 21.895 7.59043 21.635 7.33001C21.4294 7.12387 21.1137 7.07521 20.8555 7.20981L7.03769 14.4054L1.81512 12.59C1.53045 12.4964 1.33685 12.2321 1.33335 11.9325C1.31959 11.6307 1.49822 11.3533 1.77866 11.2411L25.6641 1.59783C25.9136 1.49196 26.2015 1.53631 26.4076 1.71241C26.6126 1.87794 26.7069 2.14495 26.6511 2.40252L22.3021 23.7567Z" fill="black"/>
</svg>
