<svg width="27" height="32" viewBox="0 0 27 32" fill="none" xmlns="http://www.w3.org/2000/svg">
<path d="M26.4355 24.893C25.9669 25.9772 25.3871 27.0102 24.7053 27.9755C24.0716 28.9665 23.331 29.8854 22.4966 30.7156C21.7271 31.4603 20.709 31.8958 19.6374 31.9388C18.7266 31.8972 17.8317 31.6856 16.9992 31.315C16.1022 30.9339 15.1395 30.7304 14.1646 30.7156C13.1601 30.736 12.1688 30.9478 11.2441 31.3395C10.4476 31.6956 9.59775 31.9187 8.72859 32C8.18048 31.9908 7.63973 31.8725 7.13818 31.6519C6.63663 31.4313 6.1844 31.113 5.80811 30.7156C4.93898 29.8741 4.16158 28.9434 3.4889 27.9388C2.43847 26.4343 1.61185 24.7863 1.03472 23.0459C0.371904 21.1875 0.0235713 19.2322 0.00396006 17.2599C-0.0492595 15.3237 0.434821 13.4104 1.40285 11.7309C2.08708 10.4818 3.09037 9.43526 4.31106 8.69725C5.50674 7.98563 6.86983 7.60162 8.26229 7.5841C9.31332 7.64921 10.346 7.889 11.3178 8.29358C12.0997 8.64019 12.9253 8.87888 13.7719 9.00306C14.6923 8.81194 15.5922 8.5334 16.4593 8.17125C17.6262 7.69696 18.8812 7.47595 20.1406 7.52294C21.3306 7.55635 22.497 7.86156 23.5501 8.41507C24.6031 8.96858 25.5147 9.75562 26.2147 10.7156C25.1041 11.2999 24.1799 12.1825 23.5466 13.2634C22.9133 14.3444 22.5964 15.5805 22.6316 16.8318C22.619 17.7884 22.8105 18.7368 23.1934 19.6141C23.5763 20.4914 24.1419 21.2776 24.8526 21.9205C25.4791 22.5252 26.2056 23.0176 27 23.3761C26.8159 23.8899 26.6319 24.3792 26.4355 24.8563V24.893ZM20.251 0.623854C20.2289 2.27872 19.6054 3.86943 18.4962 5.10092C17.9351 5.87142 17.1961 6.49596 16.3418 6.92178C15.4875 7.3476 14.5429 7.56218 13.5879 7.5474C13.5749 7.34781 13.5749 7.1476 13.5879 6.94801C13.6403 5.27013 14.2982 3.66743 15.4408 2.43425C16.0764 1.72246 16.8482 1.14438 17.7109 0.733945C18.5176 0.323024 19.3972 0.0736773 20.3001 0C20.3119 0.211864 20.3119 0.424222 20.3001 0.636086L20.251 0.623854Z" fill="#BBC7C7"/>
</svg>
